Coordinates
version=1
nRows=28
nColumns=21
inDegrees=yes

Units are S.I. units (second, meters, Newtons, ...)
Angles are in degrees.

endheader
time	sternoclavicular_r2	sternoclavicular_r3	unrotscap_r3	unrotscap_r2	acromioclavicular_r2	acromioclavicular_r3	acromioclavicular_r1	unrothum_r1	unrothum_r3	unrothum_r2	elv_angle	shoulder_elev	shoulder1_r2	shoulder_rot	elbow_flexion	pro_sup	deviation	flexion	wrist_hand_r1	wrist_hand_r3
      0.82661290	    -10.52476393	      4.45779326	     -4.45779326	     10.52476393	     -2.13105060	     17.22240138	      7.74135089	     -7.74135089	    -17.22240138	      2.13105060	     85.70980715	     43.49066255	    -85.70980715	     19.89099875	      5.82112944	     90.00000000	      0.00000000	      0.00000000	      0.00000000	      0.00000000
      0.84677419	    -10.63472618	      4.50436808	     -4.50436808	     10.63472618	     -2.15331572	     17.40234024	      7.82223217	     -7.82223217	    -17.40234024	      2.15331572	     85.71976159	     43.94505099	    -85.71976159	     19.88954985	      5.82092927	     90.00000000	      0.00000000	      0.00000000	      0.00000000	      0.00000000
      0.86693548	    -10.72468674	      4.54247113	     -4.54247113	     10.72468674	     -2.17153091	     17.54954895	      7.88840147	     -7.88840147	    -17.54954895	      2.17153091	     85.72807473	     44.31678803	    -85.72807473	     19.88840529	      5.82031759	     90.00000000	      0.00000000	      0.00000000	      0.00000000	      0.00000000
      0.88709677	    -10.79531401	      4.57238550	     -4.57238550	     10.79531401	     -2.18583149	     17.66512124	      7.94035042	     -7.94035042	    -17.66512124	      2.18583149	     85.73840278	     44.60863558	    -85.73840278	     19.88725927	      5.81802187	     90.00000000	      0.00000000	      0.00000000	      0.00000000	      0.00000000
      0.90725806	    -10.84793302	      4.59467243	     -4.59467243	     10.84793302	     -2.19648577	     17.75122539	      7.97905365	     -7.97905365	    -17.75122539	      2.19648577	     85.73831257	     44.82606905	    -85.73831257	     19.88739484	      5.82469528	     90.00000000	      0.00000000	      0.00000000	      0.00000000	      0.00000000
      0.92741935	    -10.88537859	      4.61053261	     -4.61053261	     10.88537859	     -2.20406774	     17.81250018	      8.00659624	     -8.00659624	    -17.81250018	      2.20406774	     85.74118770	     44.98080247	    -85.74118770	     19.88702343	      5.82371640	     90.00000000	      0.00000000	      0.00000000	      0.00000000	      0.00000000
      0.94758065	    -10.90978014	      4.62086795	     -4.62086795	     10.90978014	     -2.20900856	     17.85243012	      8.02454447	     -8.02454447	    -17.85243012	      2.20900856	     85.74397194	     45.08163506	    -85.74397194	     19.88641667	      5.81985265	     90.00000000	      0.00000000	      0.00000000	      0.00000000	      0.00000000
      0.96774194	    -10.92174032	      4.62593372	     -4.62593372	     10.92174032	     -2.21143025	     17.87200140	      8.03334163	     -8.03334163	    -17.87200140	      2.21143025	     85.74300292	     45.13105721	    -85.74300292	     19.88639691	      5.82344724	     90.00000000	      0.00000000	      0.00000000	      0.00000000	      0.00000000
      0.98790323	    -10.92832102	      4.62872099	     -4.62872099	     10.92832102	     -2.21276271	     17.88276984	      8.03818197	     -8.03818197	    -17.88276984	      2.21276271	     85.74461994	     45.15825009	    -85.74461994	     19.88636134	      5.81712479	     90.00000000	      0.00000000	      0.00000000	      0.00000000	      0.00000000
      1.00806452	    -10.92824653	      4.62868944	     -4.62868944	     10.92824653	     -2.21274762	     17.88264795	      8.03812718	     -8.03812718	    -17.88264795	      2.21274762	     85.74484573	     45.15794229	    -85.74484573	     19.88642043	      5.82409448	     90.00000000	      0.00000000	      0.00000000	      0.00000000	      0.00000000
      1.02822581	    -10.92807482	      4.62861672	     -4.62861672	     10.92807482	     -2.21271286	     17.88236698	      8.03800089	     -8.03800089	    -17.88236698	      2.21271286	     85.74392906	     45.15723277	    -85.74392906	     19.88646651	      5.82629394	     90.00000000	      0.00000000	      0.00000000	      0.00000000	      0.00000000
      1.04838710	    -10.92807674	      4.62861753	     -4.62861753	     10.92807674	     -2.21271325	     17.88237012	      8.03800230	     -8.03800230	    -17.88237012	      2.21271325	     85.74395773	     45.15724070	    -85.74395773	     19.88646552	      5.82623033	     90.00000000	      0.00000000	      0.00000000	      0.00000000	      0.00000000
      1.06854839	    -10.92807653	      4.62861744	     -4.62861744	     10.92807653	     -2.21271320	     17.88236978	      8.03800214	     -8.03800214	    -17.88236978	      2.21271320	     85.74395577	     45.15723983	    -85.74395577	     19.88646558	      5.82623447	     90.00000000	      0.00000000	      0.00000000	      0.00000000	      0.00000000
      1.08870968	    -10.92807654	      4.62861745	     -4.62861745	     10.92807654	     -2.21271321	     17.88236979	      8.03800215	     -8.03800215	    -17.88236979	      2.21271321	     85.74395587	     45.15723987	    -85.74395587	     19.88646558	      5.82623426	     90.00000000	      0.00000000	      0.00000000	      0.00000000	      0.00000000
      1.10887097	    -10.92807654	      4.62861745	     -4.62861745	     10.92807654	     -2.21271321	     17.88236979	      8.03800215	     -8.03800215	    -17.88236979	      2.21271321	     85.74395587	     45.15723987	    -85.74395587	     19.88646558	      5.82623427	     90.00000000	      0.00000000	      0.00000000	      0.00000000	      0.00000000
      1.12903226	    -10.92807654	      4.62861745	     -4.62861745	     10.92807654	     -2.21271321	     17.88236979	      8.03800215	     -8.03800215	    -17.88236979	      2.21271321	     85.74395587	     45.15723987	    -85.74395587	     19.88646558	      5.82623427	     90.00000000	      0.00000000	      0.00000000	      0.00000000	      0.00000000
      1.14919355	    -10.92807654	      4.62861745	     -4.62861745	     10.92807654	     -2.21271321	     17.88236979	      8.03800215	     -8.03800215	    -17.88236979	      2.21271321	     85.74395587	     45.15723987	    -85.74395587	     19.88646558	      5.82623427	     90.00000000	      0.00000000	      0.00000000	      0.00000000	      0.00000000
      1.16935484	    -10.92807654	      4.62861745	     -4.62861745	     10.92807654	     -2.21271321	     17.88236979	      8.03800215	     -8.03800215	    -17.88236979	      2.21271321	     85.74395587	     45.15723987	    -85.74395587	     19.88646558	      5.82623427	     90.00000000	      0.00000000	      0.00000000	      0.00000000	      0.00000000
      1.18951613	    -10.92807654	      4.62861745	     -4.62861745	     10.92807654	     -2.21271321	     17.88236979	      8.03800215	     -8.03800215	    -17.88236979	      2.21271321	     85.74395587	     45.15723987	    -85.74395587	     19.88646558	      5.82623427	     90.00000000	      0.00000000	      0.00000000	      0.00000000	      0.00000000
      1.20967742	    -10.92807654	      4.62861745	     -4.62861745	     10.92807654	     -2.21271321	     17.88236979	      8.03800215	     -8.03800215	    -17.88236979	      2.21271321	     85.74395587	     45.15723987	    -85.74395587	     19.88646558	      5.82623427	     90.00000000	      0.00000000	      0.00000000	      0.00000000	      0.00000000
      1.22983871	    -10.92807654	      4.62861745	     -4.62861745	     10.92807654	     -2.21271321	     17.88236979	      8.03800215	     -8.03800215	    -17.88236979	      2.21271321	     85.74395587	     45.15723987	    -85.74395587	     19.88646558	      5.82623427	     90.00000000	      0.00000000	      0.00000000	      0.00000000	      0.00000000
      1.25000000	    -10.92807654	      4.62861745	     -4.62861745	     10.92807654	     -2.21271321	     17.88236979	      8.03800215	     -8.03800215	    -17.88236979	      2.21271321	     85.74395587	     45.15723987	    -85.74395587	     19.88646558	      5.82623427	     90.00000000	      0.00000000	      0.00000000	      0.00000000	      0.00000000
      1.27016129	    -10.92807654	      4.62861745	     -4.62861745	     10.92807654	     -2.21271321	     17.88236979	      8.03800215	     -8.03800215	    -17.88236979	      2.21271321	     85.74395587	     45.15723987	    -85.74395587	     19.88646558	      5.82623427	     90.00000000	      0.00000000	      0.00000000	      0.00000000	      0.00000000
      1.29032258	    -10.92807654	      4.62861745	     -4.62861745	     10.92807654	     -2.21271321	     17.88236979	      8.03800215	     -8.03800215	    -17.88236979	      2.21271321	     85.74395587	     45.15723987	    -85.74395587	     19.88646558	      5.82623427	     90.00000000	      0.00000000	      0.00000000	      0.00000000	      0.00000000
      1.31048387	    -10.92807654	      4.62861745	     -4.62861745	     10.92807654	     -2.21271321	     17.88236979	      8.03800215	     -8.03800215	    -17.88236979	      2.21271321	     85.74395587	     45.15723987	    -85.74395587	     19.88646558	      5.82623427	     90.00000000	      0.00000000	      0.00000000	      0.00000000	      0.00000000
      1.33064516	    -10.92807654	      4.62861745	     -4.62861745	     10.92807654	     -2.21271321	     17.88236979	      8.03800215	     -8.03800215	    -17.88236979	      2.21271321	     85.74395587	     45.15723987	    -85.74395587	     19.88646558	      5.82623427	     90.00000000	      0.00000000	      0.00000000	      0.00000000	      0.00000000
      1.35080645	    -10.92807654	      4.62861745	     -4.62861745	     10.92807654	     -2.21271321	     17.88236979	      8.03800215	     -8.03800215	    -17.88236979	      2.21271321	     85.74395587	     45.15723987	    -85.74395587	     19.88646558	      5.82623427	     90.00000000	      0.00000000	      0.00000000	      0.00000000	      0.00000000
      1.37096774	    -10.92807654	      4.62861745	     -4.62861745	     10.92807654	     -2.21271321	     17.88236979	      8.03800215	     -8.03800215	    -17.88236979	      2.21271321	     85.74395587	     45.15723987	    -85.74395587	     19.88646558	      5.82623427	     90.00000000	      0.00000000	      0.00000000	      0.00000000	      0.00000000
